# Blender v2.81 (sub 16) OBJ File: ''
# www.blender.org
mtllib CuttingBoard004.mtl
o CuttingBoard003
v -0.131872 0.014769 -0.220694
v -0.131872 0.014228 0.221610
v 0.131487 0.014372 0.221728
v 0.131487 0.014206 -0.220439
v -0.131744 0.000302 -0.220393
v 0.131489 0.000009 -0.220618
v 0.131482 0.000191 0.221678
v -0.131993 0.000194 0.221730
v -0.132291 0.000494 0.221728
v -0.132174 0.013928 0.221612
v -0.132169 0.014470 -0.220688
v -0.132047 0.000602 -0.220399
v 0.131787 0.013905 -0.220442
v 0.131787 0.014072 0.221727
v 0.131782 0.000491 0.221679
v 0.131788 0.000309 -0.220615
v -0.131874 0.013927 0.221913
v -0.131991 0.000494 0.222028
v 0.131482 0.000491 0.221979
v 0.131487 0.014072 0.222027
v -0.131894 0.000342 -0.220394
v -0.131888 0.000381 -0.220538
v -0.131744 0.000342 -0.220544
v -0.132005 0.000452 -0.220396
v -0.131967 0.000458 -0.220539
v -0.132007 0.000602 -0.220549
v -0.131897 0.000602 -0.220659
v -0.131889 0.000458 -0.220617
v -0.131747 0.000602 -0.220699
v -0.131745 0.000452 -0.220656
v 0.131637 0.014165 -0.220439
v 0.131630 0.014126 -0.220583
v 0.131487 0.014166 -0.220589
v 0.131747 0.014055 -0.220441
v 0.131708 0.014049 -0.220584
v 0.131747 0.013905 -0.220592
v 0.131637 0.013905 -0.220703
v 0.131630 0.014049 -0.220662
v 0.131487 0.013906 -0.220743
v 0.131487 0.014056 -0.220701
v 0.131488 0.000049 -0.220767
v 0.131632 0.000088 -0.220761
v 0.131638 0.000049 -0.220618
v 0.131488 0.000159 -0.220876
v 0.131632 0.000165 -0.220837
v 0.131488 0.000309 -0.220914
v 0.131638 0.000309 -0.220874
v 0.131748 0.000309 -0.220764
v 0.131709 0.000165 -0.220760
v 0.131748 0.000159 -0.220617
v 0.131487 0.014332 0.221878
v 0.131630 0.014293 0.221871
v 0.131637 0.014332 0.221728
v 0.131487 0.014222 0.221987
v 0.131630 0.014216 0.221948
v 0.131636 0.014072 0.221987
v 0.131747 0.014072 0.221877
v 0.131708 0.014216 0.221871
v 0.131747 0.014222 0.221728
v -0.131873 0.014077 0.221871
v -0.132016 0.014071 0.221832
v -0.132024 0.013927 0.221872
v -0.131872 0.014188 0.221760
v -0.132016 0.014149 0.221754
v -0.132022 0.014188 0.221610
v -0.132133 0.014077 0.221611
v -0.132094 0.014071 0.221755
v -0.132134 0.013927 0.221762
v -0.131871 0.014729 -0.220843
v -0.132014 0.014691 -0.220836
v -0.132021 0.014729 -0.220693
v -0.131870 0.014619 -0.220950
v -0.132014 0.014613 -0.220912
v -0.131869 0.014469 -0.220987
v -0.132019 0.014470 -0.220947
v -0.132129 0.014470 -0.220837
v -0.132091 0.014613 -0.220834
v -0.132130 0.014619 -0.220691
v -0.132252 0.000344 0.221729
v -0.132213 0.000350 0.221872
v -0.132251 0.000494 0.221878
v -0.132143 0.000234 0.221730
v -0.132136 0.000273 0.221873
v -0.131993 0.000234 0.221880
v -0.131992 0.000344 0.221989
v -0.132135 0.000350 0.221950
v -0.132141 0.000494 0.221988
v 0.131631 0.000231 0.221678
v 0.131625 0.000270 0.221822
v 0.131482 0.000231 0.221828
v 0.131742 0.000341 0.221679
v 0.131703 0.000348 0.221822
v 0.131742 0.000491 0.221829
v 0.131631 0.000491 0.221939
v 0.131625 0.000348 0.221900
v 0.131482 0.000342 0.221939
vt 0.042419 0.088076
vt 0.497678 0.894415
vt 0.042416 0.894415
vt 0.532000 0.894747
vt 0.993543 0.086545
vt 0.532002 0.086546
vt 0.041184 0.088075
vt 0.008639 0.894000
vt 0.009093 0.088076
vt 0.498758 0.894000
vt 0.524197 0.088075
vt 0.524198 0.894001
vt 0.042419 0.086989
vt 0.497679 0.062794
vt 0.497679 0.086994
vt 0.531737 0.894748
vt 0.531999 0.895022
vt 0.531474 0.894753
vt 0.531747 0.895012
vt 0.008638 0.894273
vt 0.008287 0.894000
vt 0.008294 0.894547
vt 0.008301 0.894262
vt 0.042414 0.920903
vt 0.042155 0.920627
vt 0.042414 0.920627
vt 0.042164 0.921179
vt 0.042166 0.920891
vt 0.531474 0.895015
vt 0.531745 0.895295
vt 0.497937 0.894416
vt 0.497678 0.894689
vt 0.498477 0.894000
vt 0.497926 0.894679
vt 0.498758 0.894274
vt 0.498487 0.894547
vt 0.498489 0.894262
vt 0.497678 0.894829
vt 0.497937 0.895110
vt 0.497678 0.895110
vt 0.497926 0.894841
vt 0.498196 0.894681
vt 0.497926 0.894962
vt 0.993541 0.895020
vt 0.993804 0.894746
vt 0.993541 0.894747
vt 0.993541 0.895295
vt 0.993793 0.895007
vt 0.497935 0.920617
vt 0.497676 0.920898
vt 0.497676 0.920616
vt 0.498195 0.920881
vt 0.497924 0.920886
vt 0.524478 0.894000
vt 0.524198 0.894274
vt 0.524759 0.893999
vt 0.524466 0.894262
vt 0.993792 0.895295
vt 0.994067 0.895005
vt 0.497679 0.087803
vt 0.497938 0.088076
vt 0.497679 0.088076
vt 0.497927 0.087250
vt 0.497927 0.087815
vt 0.497938 0.086994
vt 0.497679 0.087261
vt 0.498198 0.087249
vt 0.498479 0.088076
vt 0.498760 0.087802
vt 0.498760 0.088075
vt 0.498491 0.087814
vt 0.497927 0.087529
vt 0.498198 0.087815
vt 0.042419 0.087259
vt 0.042160 0.086989
vt 0.042170 0.087813
vt 0.042171 0.087247
vt 0.042159 0.088075
vt 0.042418 0.087802
vt 0.041541 0.088075
vt 0.041184 0.087802
vt 0.041188 0.087529
vt 0.041526 0.087814
vt 0.042169 0.087529
vt 0.041900 0.087251
vt 0.042417 0.894687
vt 0.042158 0.894414
vt 0.042168 0.894836
vt 0.042170 0.894674
vt 0.042157 0.895100
vt 0.042416 0.894824
vt 0.042416 0.895100
vt 0.041898 0.894843
vt 0.041545 0.894000
vt 0.041193 0.894273
vt 0.041193 0.894000
vt 0.041530 0.894262
vt 0.042171 0.894962
vt 0.041898 0.894670
vt 0.008735 0.088076
vt 0.009093 0.087802
vt 0.008377 0.088076
vt 0.008750 0.087814
vt 0.532003 0.086272
vt 0.531740 0.086546
vt 0.531753 0.085997
vt 0.531752 0.086285
vt 0.042160 0.062800
vt 0.042419 0.062530
vt 0.042419 0.062800
vt 0.041900 0.062803
vt 0.042171 0.062542
vt 0.008377 0.087816
vt 0.008756 0.087529
vt 0.993805 0.086545
vt 0.993543 0.086271
vt 0.994069 0.086544
vt 0.993794 0.086283
vt 0.524197 0.087802
vt 0.524478 0.088075
vt 0.524467 0.087529
vt 0.524466 0.087814
vt 0.497680 0.062527
vt 0.497938 0.062794
vt 0.497928 0.062259
vt 0.497927 0.062539
vt 0.994069 0.086282
vt 0.993795 0.085997
vt 0.498756 0.894547
vt 0.008633 0.894547
vt 0.009097 0.087529
vt 0.532004 0.085997
vt 0.498198 0.086993
vt 0.007934 0.894002
vt 0.994067 0.894743
vt 0.042413 0.921179
vt 0.498195 0.920612
vt 0.524759 0.894260
vt 0.041532 0.087529
vt 0.041898 0.895106
vt 0.041900 0.062545
vt 0.524198 0.087529
vt 0.497680 0.062259
vt 0.531997 0.895295
vt 0.524197 0.894547
vt 0.041188 0.894547
vt 0.993543 0.085997
vt 0.498198 0.062793
vn -0.1270 0.9836 0.1278
vn 0.1300 0.9833 -0.1272
vn -0.1279 0.9834 -0.1284
vn -0.1278 -0.9836 -0.1270
vn 0.1278 -0.9835 0.1281
vn -0.1281 -0.9835 0.1277
vn -0.9824 0.1367 0.1277
vn -0.9819 -0.1394 -0.1283
vn -0.9847 -0.1185 0.1276
vn 0.9834 0.1294 -0.1275
vn 0.9835 -0.1283 0.1276
vn 0.9837 -0.1264 -0.1282
vn -0.1294 0.1396 0.9817
vn 0.1279 -0.1307 0.9831
vn 0.1277 0.1246 0.9840
vn -0.4890 -0.8636 -0.1223
vn -0.1221 -0.8651 -0.4865
vn -0.8576 -0.4997 -0.1218
vn -0.4426 -0.7786 -0.4450
vn -0.8603 -0.1388 -0.4905
vn -0.4458 -0.4640 -0.7655
vn -0.7684 -0.4657 -0.4390
vn -0.1217 -0.5039 -0.8552
vn -0.4905 -0.1436 -0.8596
vn -0.1275 -0.1478 -0.9808
vn 0.4934 0.8613 -0.1212
vn 0.1235 0.8641 -0.4879
vn 0.8621 0.4919 -0.1216
vn 0.4474 0.7755 -0.4454
vn 0.8624 0.1281 -0.4898
vn 0.4484 0.4564 -0.7685
vn 0.7693 0.4574 -0.4460
vn 0.1223 0.5007 -0.8569
vn 0.4935 0.1315 -0.8597
vn 0.1281 0.1392 -0.9819
vn 0.1208 -0.8612 -0.4937
vn 0.4921 -0.8620 -0.1218
vn 0.1288 -0.9833 -0.1286
vn 0.1205 -0.4844 -0.8665
vn 0.4487 -0.7713 -0.4514
vn 0.4907 -0.1106 -0.8643
vn 0.1275 -0.1162 -0.9850
vn 0.7740 -0.4449 -0.4505
vn 0.4498 -0.4400 -0.7772
vn 0.8629 -0.4904 -0.1221
vn 0.8633 -0.1154 -0.4913
vn 0.1204 0.8616 0.4930
vn 0.4911 0.8626 0.1215
vn 0.1276 0.9836 0.1273
vn 0.4485 0.4472 0.7739
vn 0.4469 0.7736 0.4493
vn 0.4914 0.1201 0.8626
vn 0.1215 0.4899 0.8633
vn 0.7728 0.4480 0.4496
vn 0.8626 0.4911 0.1211
vn 0.8616 0.1174 0.4938
vn 0.9838 0.1264 0.1270
vn -0.1223 0.4974 0.8589
vn -0.4917 0.1325 0.8606
vn -0.4465 0.7753 0.4467
vn -0.4464 0.4529 0.7717
vn -0.4895 0.8636 0.1207
vn -0.1198 0.8631 0.4907
vn -0.8596 0.4966 0.1204
vn -0.8618 0.1314 0.4900
vn -0.7695 0.4523 0.4509
vn -0.1200 0.8596 -0.4968
vn -0.4933 0.8613 -0.1218
vn -0.4518 0.4330 -0.7800
vn -0.4514 0.7695 -0.4518
vn -0.4917 0.1003 -0.8650
vn -0.1199 0.4744 -0.8721
vn -0.1281 0.1079 -0.9859
vn -0.7775 0.4372 -0.4521
vn -0.8655 0.4856 -0.1227
vn -0.8636 0.1064 -0.4928
vn -0.9845 0.1194 -0.1286
vn -0.8660 -0.4853 0.1205
vn -0.8636 -0.1106 0.4919
vn -0.4940 -0.8609 0.1216
vn -0.7764 -0.4437 0.4476
vn -0.1224 -0.8608 0.4940
vn -0.4510 -0.4413 0.7758
vn -0.4507 -0.7702 0.4513
vn -0.4928 -0.1104 0.8631
vn -0.1217 -0.4859 0.8655
vn -0.1281 -0.1196 0.9845
vn 0.4900 -0.8632 0.1216
vn 0.1215 -0.8626 0.4911
vn 0.8617 -0.4924 0.1224
vn 0.4488 -0.7725 0.4492
vn 0.8621 -0.1223 0.4918
vn 0.4485 -0.4509 0.7717
vn 0.7709 -0.4500 0.4508
vn 0.1227 -0.4928 0.8615
vn 0.4892 -0.1247 0.8632
usemtl Default_OBJ
s 1
f 2/1/1 4/2/2 1/3/3
f 5/4/4 7/5/5 8/6/6
f 10/7/7 12/8/8 9/9/9
f 13/10/10 15/11/11 16/12/12
f 17/13/13 19/14/14 20/15/15
f 21/16/16 23/17/17 5/4/4
f 24/18/18 22/19/19 21/16/16
f 26/20/20 24/21/18 12/8/8
f 26/20/20 28/22/21 25/23/22
f 30/24/23 27/25/24 29/26/25
f 30/24/23 22/27/19 28/28/21
f 22/19/19 25/29/22 28/30/21
f 31/31/26 33/32/27 4/2/2
f 34/33/28 32/34/29 31/31/26
f 36/35/30 34/33/28 13/10/10
f 36/35/30 38/36/31 35/37/32
f 40/38/33 37/39/34 39/40/35
f 40/38/33 32/34/29 38/41/31
f 32/34/29 35/42/32 38/43/31
f 41/44/36 43/45/37 6/46/38
f 44/47/39 42/48/40 41/44/36
f 47/49/41 44/50/39 46/51/42
f 47/49/41 49/52/43 45/53/44
f 50/54/45 48/55/46 16/12/12
f 43/56/37 49/57/43 50/54/45
f 42/48/40 45/58/44 49/59/43
f 51/60/47 53/61/48 3/62/49
f 51/60/47 55/63/50 52/64/51
f 56/65/52 54/66/53 20/15/15
f 56/65/52 58/67/54 55/63/50
f 59/68/55 57/69/56 14/70/57
f 53/61/48 58/71/54 59/68/55
f 52/64/51 55/72/50 58/73/54
f 60/74/58 62/75/59 17/13/13
f 60/74/58 64/76/60 61/77/61
f 65/78/62 63/79/63 2/1/1
f 66/80/64 64/76/60 65/78/62
f 68/81/65 66/80/64 10/7/7
f 62/82/59 67/83/66 68/81/65
f 61/77/61 64/84/60 67/85/66
f 69/86/67 71/87/68 1/3/3
f 69/86/67 73/88/69 70/89/70
f 75/90/71 72/91/72 74/92/73
f 75/90/71 77/93/74 73/88/69
f 78/94/75 76/95/76 11/96/77
f 71/87/68 77/97/74 78/94/75
f 70/89/70 73/98/69 77/99/74
f 79/100/78 81/101/79 9/9/9
f 82/102/80 80/103/81 79/100/78
f 84/104/82 82/105/80 8/6/6
f 84/104/82 86/106/83 83/107/84
f 87/108/85 85/109/86 18/110/87
f 81/111/79 86/112/83 87/108/85
f 80/103/81 83/113/84 86/114/83
f 88/115/88 90/116/89 7/5/5
f 91/117/90 89/118/91 88/115/88
f 93/119/92 91/120/90 15/11/11
f 93/119/92 95/121/93 92/122/94
f 96/123/95 94/124/96 19/14/14
f 96/123/95 89/125/91 95/126/93
f 89/118/91 92/127/94 95/128/93
f 4/2/2 69/86/67 1/3/3
f 33/32/27 72/91/72 69/86/67
f 40/38/33 74/92/73 72/91/72
f 20/15/15 60/74/58 17/13/13
f 54/66/53 63/79/63 60/74/58
f 63/79/63 3/62/49 2/1/1
f 5/4/4 41/44/36 6/46/38
f 23/17/17 44/47/39 41/44/36
f 30/24/23 46/51/42 44/50/39
f 16/12/12 36/35/30 13/10/10
f 48/55/46 37/129/34 36/35/30
f 37/39/34 46/51/42 39/40/35
f 11/96/77 26/20/20 12/8/8
f 76/95/76 27/130/24 26/20/20
f 27/25/24 74/92/73 29/26/25
f 2/1/1 71/87/68 65/78/62
f 65/78/62 78/94/75 66/80/64
f 66/80/64 11/96/77 10/7/7
f 9/9/9 68/81/65 10/7/7
f 68/81/65 87/131/85 62/82/59
f 62/75/59 18/110/87 17/13/13
f 8/6/6 90/116/89 84/104/82
f 90/116/89 85/132/86 84/104/82
f 96/123/95 18/110/87 85/109/86
f 19/14/14 56/65/52 20/15/15
f 94/124/96 57/133/56 56/65/52
f 93/119/92 14/70/57 57/69/56
f 9/9/9 24/21/18 79/100/78
f 79/100/78 21/134/16 82/102/80
f 82/105/80 5/4/4 8/6/6
f 3/62/49 31/31/26 4/2/2
f 31/31/26 59/68/55 34/33/28
f 34/33/28 14/70/57 13/10/10
f 7/5/5 43/45/37 88/115/88
f 88/115/88 50/135/45 91/117/90
f 91/120/90 16/12/12 15/11/11
f 29/26/25 39/40/35 46/51/42
f 2/1/1 3/62/49 4/2/2
f 5/4/4 6/46/38 7/5/5
f 10/7/7 11/96/77 12/8/8
f 13/10/10 14/70/57 15/11/11
f 17/13/13 18/110/87 19/14/14
f 21/16/16 22/19/19 23/17/17
f 24/18/18 25/29/22 22/19/19
f 26/20/20 25/23/22 24/21/18
f 26/20/20 27/130/24 28/22/21
f 30/24/23 28/28/21 27/25/24
f 30/24/23 23/136/17 22/27/19
f 31/31/26 32/34/29 33/32/27
f 34/33/28 35/37/32 32/34/29
f 36/35/30 35/37/32 34/33/28
f 36/35/30 37/129/34 38/36/31
f 40/38/33 38/41/31 37/39/34
f 40/38/33 33/32/27 32/34/29
f 41/44/36 42/48/40 43/45/37
f 44/47/39 45/58/44 42/48/40
f 47/49/41 45/53/44 44/50/39
f 47/49/41 48/137/46 49/52/43
f 50/54/45 49/57/43 48/55/46
f 43/56/37 42/138/40 49/57/43
f 51/60/47 52/64/51 53/61/48
f 51/60/47 54/66/53 55/63/50
f 56/65/52 55/63/50 54/66/53
f 56/65/52 57/133/56 58/67/54
f 59/68/55 58/71/54 57/69/56
f 53/61/48 52/64/51 58/71/54
f 60/74/58 61/77/61 62/75/59
f 60/74/58 63/79/63 64/76/60
f 65/78/62 64/76/60 63/79/63
f 66/80/64 67/83/66 64/76/60
f 68/81/65 67/83/66 66/80/64
f 62/82/59 61/139/61 67/83/66
f 69/86/67 70/89/70 71/87/68
f 69/86/67 72/91/72 73/88/69
f 75/90/71 73/88/69 72/91/72
f 75/90/71 76/140/76 77/93/74
f 78/94/75 77/97/74 76/95/76
f 71/87/68 70/89/70 77/97/74
f 79/100/78 80/103/81 81/101/79
f 82/102/80 83/113/84 80/103/81
f 84/104/82 83/107/84 82/105/80
f 84/104/82 85/132/86 86/106/83
f 87/108/85 86/112/83 85/109/86
f 81/111/79 80/141/81 86/112/83
f 88/115/88 89/118/91 90/116/89
f 91/117/90 92/127/94 89/118/91
f 93/119/92 92/122/94 91/120/90
f 93/119/92 94/142/96 95/121/93
f 96/123/95 95/126/93 94/124/96
f 96/123/95 90/143/89 89/125/91
f 4/2/2 33/32/27 69/86/67
f 33/32/27 40/38/33 72/91/72
f 40/38/33 39/40/35 74/92/73
f 20/15/15 54/66/53 60/74/58
f 54/66/53 51/60/47 63/79/63
f 63/79/63 51/60/47 3/62/49
f 5/4/4 23/17/17 41/44/36
f 23/17/17 30/144/23 44/47/39
f 30/24/23 29/26/25 46/51/42
f 16/12/12 48/55/46 36/35/30
f 48/55/46 47/145/41 37/129/34
f 37/39/34 47/49/41 46/51/42
f 11/96/77 76/95/76 26/20/20
f 76/95/76 75/146/71 27/130/24
f 27/25/24 75/90/71 74/92/73
f 2/1/1 1/3/3 71/87/68
f 65/78/62 71/87/68 78/94/75
f 66/80/64 78/94/75 11/96/77
f 9/9/9 81/101/79 68/81/65
f 68/81/65 81/101/79 87/131/85
f 62/75/59 87/108/85 18/110/87
f 8/6/6 7/5/5 90/116/89
f 90/116/89 96/147/95 85/132/86
f 96/123/95 19/14/14 18/110/87
f 19/14/14 94/124/96 56/65/52
f 94/124/96 93/148/92 57/133/56
f 93/119/92 15/11/11 14/70/57
f 9/9/9 12/8/8 24/21/18
f 79/100/78 24/21/18 21/134/16
f 82/105/80 21/16/16 5/4/4
f 3/62/49 53/61/48 31/31/26
f 31/31/26 53/61/48 59/68/55
f 34/33/28 59/68/55 14/70/57
f 7/5/5 6/46/38 43/45/37
f 88/115/88 43/45/37 50/135/45
f 91/120/90 50/54/45 16/12/12
f 29/26/25 74/92/73 39/40/35
